<mxfile host="app.diagrams.net" modified="2023-12-10T17:05:17.455Z" agent="Mozilla/5.0 (Windows NT 10.0; Win64; x64) AppleWebKit/537.36 (KHTML, like Gecko) Chrome/119.0.0.0 Safari/537.36" version="22.1.7" etag="Nf2Mc1wNPkXY-Iq1f_Fl" type="github">
  <diagram name="PÃ¡gina-1" id="GKQWuG_mnNwPTRp_mb8L">
    <mxGraphModel>
      <root>
        <mxCell id="0" />
        <mxCell id="1" parent="0" />
      </root>
    </mxGraphModel>
  </diagram>
</mxfile>
